<svg xmlns="http://www.w3.org/2000/svg" height="934pt" version="1.1" viewBox="1 1 934 934.99976" width="934pt">
<g id="surface1">
<path d="M 857.585938 0 L 78.414062 0 C 35.40625 0.0546875 0.554688 34.90625 0.5 77.914062 L 0.5 701.25 C 0.554688 744.261719 35.40625 779.109375 78.414062 779.164062 L 343.335938 779.164062 L 343.335938 748 L 78.414062 748 C 52.601562 748 31.664062 727.0625 31.664062 701.25 L 31.664062 77.914062 C 31.664062 52.101562 52.601562 31.164062 78.414062 31.164062 L 857.585938 31.164062 C 883.398438 31.164062 904.335938 52.101562 904.335938 77.914062 L 904.335938 701.25 C 904.339844 722.566406 889.929688 741.195312 869.28125 746.53125 L 877.078125 776.703125 C 911.480469 767.8125 935.503906 736.777344 935.5 701.25 L 935.5 77.914062 C 935.445312 34.90625 900.597656 0.0546875 857.585938 0 Z M 857.585938 0 " style=" stroke:none;fill-rule:nonzero;fill:rgb(0%,0%,0%);fill-opacity:1;" />
<path d="M 62.835938 62.335938 L 94 62.335938 L 94 93.5 L 62.835938 93.5 Z M 62.835938 62.335938 " style=" stroke:none;fill-rule:nonzero;fill:rgb(0%,0%,0%);fill-opacity:1;" />
<path d="M 125.164062 62.335938 L 156.335938 62.335938 L 156.335938 93.5 L 125.164062 93.5 Z M 125.164062 62.335938 " style=" stroke:none;fill-rule:nonzero;fill:rgb(0%,0%,0%);fill-opacity:1;" />
<path d="M 187.5 62.335938 L 218.664062 62.335938 L 218.664062 93.5 L 187.5 93.5 Z M 187.5 62.335938 " style=" stroke:none;fill-rule:nonzero;fill:rgb(0%,0%,0%);fill-opacity:1;" />
<path d="M 62.835938 124.664062 L 873.164062 124.664062 L 873.164062 155.835938 L 62.835938 155.835938 Z M 62.835938 124.664062 " style=" stroke:none;fill-rule:nonzero;fill:rgb(0%,0%,0%);fill-opacity:1;" />
<path d="M 125.164062 436.335938 L 296.585938 436.335938 L 296.585938 405.164062 L 140.75 405.164062 L 140.75 280.5 L 795.25 280.5 L 795.25 436.335938 L 810.835938 436.335938 C 819.4375 436.335938 826.414062 429.359375 826.414062 420.75 L 826.414062 264.914062 C 826.414062 256.308594 819.4375 249.335938 810.835938 249.335938 L 125.164062 249.335938 C 116.558594 249.335938 109.585938 256.308594 109.585938 264.914062 L 109.585938 420.75 C 109.585938 429.359375 116.558594 436.335938 125.164062 436.335938 Z M 125.164062 436.335938 " style=" stroke:none;fill-rule:nonzero;fill:rgb(0%,0%,0%);fill-opacity:1;" />
<path d="M 203.085938 311.664062 L 234.25 311.664062 L 234.25 374 L 203.085938 374 Z M 203.085938 311.664062 " style=" stroke:none;fill-rule:nonzero;fill:rgb(0%,0%,0%);fill-opacity:1;" />
<path d="M 779.664062 187 L 810.835938 187 L 810.835938 218.164062 L 779.664062 218.164062 Z M 779.664062 187 " style=" stroke:none;fill-rule:nonzero;fill:rgb(0%,0%,0%);fill-opacity:1;" />
<path d="M 717.335938 187 L 748.5 187 L 748.5 218.164062 L 717.335938 218.164062 Z M 717.335938 187 " style=" stroke:none;fill-rule:nonzero;fill:rgb(0%,0%,0%);fill-opacity:1;" />
<path d="M 655 187 L 686.164062 187 L 686.164062 218.164062 L 655 218.164062 Z M 655 187 " style=" stroke:none;fill-rule:nonzero;fill:rgb(0%,0%,0%);fill-opacity:1;" />
<path d="M 545.914062 806.765625 C 590.941406 806.796875 635.152344 794.628906 673.824219 771.566406 L 815.257812 916.921875 C 826.359375 928.394531 841.613281 934.90625 857.585938 935 L 858.109375 935 C 881.964844 935.082031 903.550781 920.878906 912.898438 898.9375 C 922.261719 876.996094 917.554688 851.585938 900.984375 834.4375 L 758.566406 688.066406 C 782.539062 649.363281 795.25 604.734375 795.25 559.203125 C 795.976562 458.199219 735.679688 366.738281 642.566406 327.589844 C 549.460938 288.4375 441.921875 309.328125 370.246094 380.496094 C 298.570312 451.664062 276.917969 559.042969 315.398438 652.429688 C 353.890625 745.820312 444.902344 806.765625 545.914062 806.765625 Z M 878.679688 856.164062 C 889.339844 867.183594 889.183594 884.71875 878.320312 895.535156 C 872.945312 900.894531 865.652344 903.886719 858.070312 903.835938 L 857.890625 903.835938 C 850.253906 903.796875 842.949219 900.679688 837.644531 895.195312 L 700.039062 753.792969 C 700.617188 753.335938 701.125 752.785156 701.699219 752.328125 C 708.296875 747.117188 714.617188 741.5625 720.632812 735.703125 C 720.890625 735.46875 721.167969 735.253906 721.417969 735.003906 C 727.601562 728.863281 733.464844 722.394531 738.96875 715.628906 C 739.410156 715.09375 739.949219 714.605469 740.378906 714.074219 Z M 545.914062 342.835938 C 665.859375 342.472656 763.449219 439.265625 764.085938 559.203125 C 764.125 602.816406 750.847656 645.40625 726.011719 681.253906 C 668.28125 767.566406 557.597656 801.019531 461.722656 761.15625 C 365.851562 721.285156 311.527344 619.207031 332.011719 517.414062 C 352.5 415.617188 442.078125 342.503906 545.914062 342.835938 Z M 545.914062 342.835938 " style=" stroke:none;fill-rule:nonzero;fill:rgb(0%,0%,0%);fill-opacity:1;" />
<path d="M 545.914062 732.414062 C 640.585938 732.414062 717.335938 655.671875 717.335938 561 C 717.335938 466.324219 640.585938 389.585938 545.914062 389.585938 C 451.242188 389.585938 374.5 466.324219 374.5 561 C 374.617188 655.625 451.292969 732.300781 545.914062 732.414062 Z M 545.914062 420.75 C 623.375 420.75 686.164062 483.539062 686.164062 561 C 686.164062 638.460938 623.375 701.25 545.914062 701.25 C 468.457031 701.25 405.664062 638.460938 405.664062 561 C 405.753906 483.578125 468.492188 420.832031 545.914062 420.75 Z M 545.914062 420.75 " style=" stroke:none;fill-rule:nonzero;fill:rgb(0%,0%,0%);fill-opacity:1;" />
<path d="M 456.976562 581.148438 L 581.640625 456.480469 L 603.683594 478.519531 L 479.015625 603.183594 Z M 456.976562 581.148438 " style=" stroke:none;fill-rule:nonzero;fill:rgb(0%,0%,0%);fill-opacity:1;" />
<path d="M 519.316406 612.316406 L 612.816406 518.820312 L 634.847656 540.859375 L 541.347656 634.359375 Z M 519.316406 612.316406 " style=" stroke:none;fill-rule:nonzero;fill:rgb(0%,0%,0%);fill-opacity:1;" />
</g>
</svg>