<svg xmlns="http://www.w3.org/2000/svg" height="934pt" version="1.1" viewBox="1 0 934.9986 934" width="934pt">
<g id="surface1">
<path d="M 919.355469 93.996094 L 124.660156 93.996094 L 124.660156 16.085938 C 124.660156 7.476562 117.679688 0.5 109.074219 0.5 L 62.324219 0.5 C 27.910156 0.5 0 28.410156 0 62.828125 L 0 686.121094 C 0 720.542969 27.910156 748.449219 62.324219 748.449219 L 810.28125 748.449219 C 814.410156 748.441406 818.367188 746.796875 821.292969 743.882812 L 930.375 634.808594 C 931.675781 633.480469 932.730469 631.941406 933.492188 630.242188 C 933.699219 629.753906 933.835938 629.277344 934.003906 628.773438 C 934.453125 627.492188 934.71875 626.140625 934.796875 624.769531 C 934.796875 624.429688 935 624.132812 935 623.789062 L 935 109.578125 C 935 105.4375 933.351562 101.457031 930.410156 98.535156 C 927.480469 95.613281 923.5 93.976562 919.355469 93.996094 Z M 31.164062 109.578125 L 31.164062 62.828125 C 31.164062 45.621094 45.121094 31.664062 62.324219 31.664062 L 93.496094 31.664062 L 93.496094 623.789062 L 62.324219 623.789062 C 51.382812 623.78125 40.632812 626.65625 31.164062 632.160156 Z M 825.859375 695.25 L 825.859375 639.375 L 881.738281 639.375 Z M 903.769531 608.210938 L 810.28125 608.210938 C 801.671875 608.210938 794.695312 615.183594 794.695312 623.789062 L 794.695312 717.285156 L 62.324219 717.285156 C 45.121094 717.285156 31.164062 703.332031 31.164062 686.121094 C 31.164062 668.910156 45.121094 654.960938 62.324219 654.960938 L 109.074219 654.960938 C 117.679688 654.960938 124.660156 647.980469 124.660156 639.375 L 124.660156 125.160156 L 903.769531 125.160156 Z M 903.769531 608.210938 " style=" stroke:none;fill-rule:nonzero;fill:rgb(0%,0%,0%);fill-opacity:1;" />
<path d="M 171.40625 654.960938 L 358.390625 654.960938 C 367 654.960938 373.976562 647.980469 373.976562 639.375 L 373.976562 608.210938 L 467.46875 608.210938 L 467.46875 639.375 C 467.46875 647.980469 474.445312 654.960938 483.054688 654.960938 L 670.039062 654.960938 C 678.640625 654.960938 685.621094 647.980469 685.621094 639.375 L 685.621094 545.878906 C 685.621094 537.273438 678.640625 530.292969 670.039062 530.292969 L 483.054688 530.292969 C 474.445312 530.292969 467.46875 537.273438 467.46875 545.878906 L 467.46875 577.050781 L 373.976562 577.050781 L 373.976562 545.878906 C 373.976562 537.273438 367 530.292969 358.390625 530.292969 L 280.480469 530.292969 L 280.480469 467.96875 L 358.390625 467.96875 C 367 467.96875 373.976562 460.992188 373.976562 452.382812 L 373.976562 421.21875 L 467.46875 421.21875 L 467.46875 452.382812 C 467.46875 460.992188 474.445312 467.96875 483.054688 467.96875 L 670.039062 467.96875 C 678.640625 467.96875 685.621094 460.992188 685.621094 452.382812 L 685.621094 358.894531 C 685.621094 350.285156 678.640625 343.308594 670.039062 343.308594 L 592.128906 343.308594 L 592.128906 280.980469 L 670.039062 280.980469 C 678.640625 280.980469 685.621094 274.003906 685.621094 265.398438 L 685.621094 171.90625 C 685.621094 163.292969 678.640625 156.320312 670.039062 156.320312 L 483.054688 156.320312 C 474.445312 156.320312 467.46875 163.292969 467.46875 171.90625 L 467.46875 203.070312 L 373.976562 203.070312 L 373.976562 171.90625 C 373.976562 163.292969 367 156.320312 358.390625 156.320312 L 171.40625 156.320312 C 162.796875 156.320312 155.820312 163.292969 155.820312 171.90625 L 155.820312 265.398438 C 155.820312 274.003906 162.796875 280.980469 171.40625 280.980469 L 358.390625 280.980469 C 367 280.980469 373.976562 274.003906 373.976562 265.398438 L 373.976562 234.230469 L 467.46875 234.230469 L 467.46875 265.398438 C 467.46875 274.003906 474.445312 280.980469 483.054688 280.980469 L 560.964844 280.980469 L 560.964844 343.308594 L 483.054688 343.308594 C 474.445312 343.308594 467.46875 350.285156 467.46875 358.894531 L 467.46875 390.058594 L 373.976562 390.058594 L 373.976562 358.894531 C 373.976562 350.285156 367 343.308594 358.390625 343.308594 L 171.40625 343.308594 C 162.796875 343.308594 155.820312 350.285156 155.820312 358.894531 L 155.820312 452.382812 C 155.820312 460.992188 162.796875 467.96875 171.40625 467.96875 L 249.316406 467.96875 L 249.316406 530.292969 L 171.40625 530.292969 C 162.796875 530.292969 155.820312 537.273438 155.820312 545.878906 L 155.820312 639.375 C 155.820312 647.980469 162.796875 654.960938 171.40625 654.960938 Z M 498.636719 561.464844 L 654.457031 561.464844 L 654.457031 623.789062 L 498.636719 623.789062 Z M 342.808594 249.8125 L 186.988281 249.8125 L 186.988281 187.488281 L 342.808594 187.488281 Z M 498.636719 249.8125 L 498.636719 187.488281 L 654.457031 187.488281 L 654.457031 249.8125 Z M 498.636719 374.472656 L 654.457031 374.472656 L 654.457031 436.804688 L 498.636719 436.804688 Z M 186.988281 436.804688 L 186.988281 374.472656 L 342.808594 374.472656 L 342.808594 436.804688 Z M 186.988281 561.464844 L 342.808594 561.464844 L 342.808594 623.789062 L 186.988281 623.789062 Z M 186.988281 561.464844 " style=" stroke:none;fill-rule:nonzero;fill:rgb(0%,0%,0%);fill-opacity:1;" />
<path d="M 716.785156 156.320312 L 841.445312 156.320312 L 841.445312 187.488281 L 716.785156 187.488281 Z M 716.785156 156.320312 " style=" stroke:none;fill-rule:nonzero;fill:rgb(0%,0%,0%);fill-opacity:1;" />
<path d="M 716.785156 218.648438 L 779.109375 218.648438 L 779.109375 249.8125 L 716.785156 249.8125 Z M 716.785156 218.648438 " style=" stroke:none;fill-rule:nonzero;fill:rgb(0%,0%,0%);fill-opacity:1;" />
<path d="M 716.785156 343.308594 L 841.445312 343.308594 L 841.445312 374.472656 L 716.785156 374.472656 Z M 716.785156 343.308594 " style=" stroke:none;fill-rule:nonzero;fill:rgb(0%,0%,0%);fill-opacity:1;" />
<path d="M 716.785156 405.632812 L 841.445312 405.632812 L 841.445312 436.804688 L 716.785156 436.804688 Z M 716.785156 405.632812 " style=" stroke:none;fill-rule:nonzero;fill:rgb(0%,0%,0%);fill-opacity:1;" />
<path d="M 716.785156 545.878906 L 841.445312 545.878906 L 841.445312 577.050781 L 716.785156 577.050781 Z M 716.785156 545.878906 " style=" stroke:none;fill-rule:nonzero;fill:rgb(0%,0%,0%);fill-opacity:1;" />
<path d="M 716.785156 608.210938 L 763.535156 608.210938 L 763.535156 639.375 L 716.785156 639.375 Z M 716.785156 608.210938 " style=" stroke:none;fill-rule:nonzero;fill:rgb(0%,0%,0%);fill-opacity:1;" />
<path d="M 810.28125 218.648438 L 841.445312 218.648438 L 841.445312 249.8125 L 810.28125 249.8125 Z M 810.28125 218.648438 " style=" stroke:none;fill-rule:nonzero;fill:rgb(0%,0%,0%);fill-opacity:1;" />
<path d="M 256.246094 932.820312 C 258.8125 934.527344 261.820312 935.425781 264.898438 935.4375 L 732.371094 935.4375 C 775.394531 935.4375 810.28125 900.550781 810.28125 857.523438 C 810.28125 814.496094 775.394531 779.609375 732.371094 779.609375 L 264.898438 779.609375 C 261.820312 779.625 258.8125 780.527344 256.246094 782.230469 L 166.738281 841.945312 L 140.238281 841.945312 L 140.238281 873.105469 L 166.738281 873.105469 Z M 716.785156 810.78125 L 732.371094 810.78125 C 758.183594 810.78125 779.109375 831.710938 779.109375 857.523438 C 779.109375 883.339844 758.183594 904.273438 732.371094 904.273438 L 716.785156 904.273438 Z M 654.457031 810.78125 L 685.621094 810.78125 L 685.621094 904.273438 L 654.457031 904.273438 Z M 280.480469 810.78125 L 623.289062 810.78125 L 623.289062 841.945312 L 280.480469 841.945312 Z M 280.480469 873.105469 L 623.289062 873.105469 L 623.289062 904.273438 L 280.480469 904.273438 Z M 249.316406 824.304688 L 249.316406 890.746094 L 199.449219 857.523438 Z M 249.316406 824.304688 " style=" stroke:none;fill-rule:nonzero;fill:rgb(0%,0%,0%);fill-opacity:1;" />
</g>
</svg>