<svg xmlns="http://www.w3.org/2000/svg" height="937pt" version="1.1" viewBox="0 -93 937.5 937" width="937pt">
<g id="surface1">
<path d="M 62.5 625.25 L 156.25 625.25 L 156.25 594 L 62.5 594 C 45.238281 594 31.25 580.011719 31.25 562.75 L 31.25 62.75 C 31.25 45.488281 45.238281 31.5 62.5 31.5 L 781.25 31.5 C 798.511719 31.5 812.5 45.488281 812.5 62.75 L 812.5 94 L 843.75 94 L 843.75 62.75 C 843.75 28.234375 815.765625 0.25 781.25 0.25 L 62.5 0.25 C 27.984375 0.25 0 28.234375 0 62.75 L 0 562.75 C 0 597.265625 27.984375 625.25 62.5 625.25 Z M 62.5 625.25 " style=" stroke:none;fill-rule:nonzero;fill:rgb(0%,0%,0%);fill-opacity:1;" />
<path d="M 875 125.25 L 250 125.25 C 215.484375 125.25 187.5 153.234375 187.5 187.75 L 187.5 687.75 C 187.5 722.265625 215.484375 750.25 250 750.25 L 875 750.25 C 909.515625 750.25 937.5 722.265625 937.5 687.75 L 937.5 187.75 C 937.5 153.234375 909.515625 125.25 875 125.25 Z M 906.25 687.75 C 906.25 705.011719 892.261719 719 875 719 L 250 719 C 232.738281 719 218.75 705.011719 218.75 687.75 L 218.75 187.75 C 218.75 170.488281 232.738281 156.5 250 156.5 L 875 156.5 C 892.261719 156.5 906.25 170.488281 906.25 187.75 Z M 906.25 687.75 " style=" stroke:none;fill-rule:nonzero;fill:rgb(0%,0%,0%);fill-opacity:1;" />
<path d="M 859.375 250.25 L 265.625 250.25 C 256.992188 250.25 250 257.242188 250 265.875 L 250 453.375 C 250 462.007812 256.992188 469 265.625 469 L 859.375 469 C 868.007812 469 875 462.007812 875 453.375 L 875 265.875 C 875 257.242188 868.007812 250.25 859.375 250.25 Z M 758.015625 281.5 L 562.5 343.238281 L 366.984375 281.5 Z M 281.25 287.183594 L 510.617188 359.625 L 281.25 432.066406 Z M 366.984375 437.75 L 562.5 376.011719 L 758.015625 437.75 Z M 843.75 432.066406 L 614.382812 359.625 L 843.75 287.183594 Z M 843.75 432.066406 " style=" stroke:none;fill-rule:nonzero;fill:rgb(0%,0%,0%);fill-opacity:1;" />
<path d="M 421.875 500.25 L 265.625 500.25 C 256.992188 500.25 250 507.242188 250 515.875 L 250 609.625 C 250 618.257812 256.992188 625.25 265.625 625.25 L 421.875 625.25 C 430.507812 625.25 437.5 618.257812 437.5 609.625 L 437.5 515.875 C 437.5 507.242188 430.507812 500.25 421.875 500.25 Z M 406.25 594 L 281.25 594 L 281.25 531.5 L 406.25 531.5 Z M 406.25 594 " style=" stroke:none;fill-rule:nonzero;fill:rgb(0%,0%,0%);fill-opacity:1;" />
<path d="M 250 656.5 L 437.5 656.5 L 437.5 687.75 L 250 687.75 Z M 250 656.5 " style=" stroke:none;fill-rule:nonzero;fill:rgb(0%,0%,0%);fill-opacity:1;" />
<path d="M 640.625 500.25 L 484.375 500.25 C 475.742188 500.25 468.75 507.242188 468.75 515.875 L 468.75 609.625 C 468.75 618.257812 475.742188 625.25 484.375 625.25 L 640.625 625.25 C 649.257812 625.25 656.25 618.257812 656.25 609.625 L 656.25 515.875 C 656.25 507.242188 649.257812 500.25 640.625 500.25 Z M 625 594 L 500 594 L 500 531.5 L 625 531.5 Z M 625 594 " style=" stroke:none;fill-rule:nonzero;fill:rgb(0%,0%,0%);fill-opacity:1;" />
<path d="M 468.75 656.5 L 656.25 656.5 L 656.25 687.75 L 468.75 687.75 Z M 468.75 656.5 " style=" stroke:none;fill-rule:nonzero;fill:rgb(0%,0%,0%);fill-opacity:1;" />
<path d="M 859.375 500.25 L 703.125 500.25 C 694.492188 500.25 687.5 507.242188 687.5 515.875 L 687.5 609.625 C 687.5 618.257812 694.492188 625.25 703.125 625.25 L 859.375 625.25 C 868.007812 625.25 875 618.257812 875 609.625 L 875 515.875 C 875 507.242188 868.007812 500.25 859.375 500.25 Z M 843.75 594 L 718.75 594 L 718.75 531.5 L 843.75 531.5 Z M 843.75 594 " style=" stroke:none;fill-rule:nonzero;fill:rgb(0%,0%,0%);fill-opacity:1;" />
<path d="M 687.5 656.5 L 875 656.5 L 875 687.75 L 687.5 687.75 Z M 687.5 656.5 " style=" stroke:none;fill-rule:nonzero;fill:rgb(0%,0%,0%);fill-opacity:1;" />
<path d="M 250 187.75 L 343.75 187.75 L 343.75 219 L 250 219 Z M 250 187.75 " style=" stroke:none;fill-rule:nonzero;fill:rgb(0%,0%,0%);fill-opacity:1;" />
<path d="M 375 187.75 L 468.75 187.75 L 468.75 219 L 375 219 Z M 375 187.75 " style=" stroke:none;fill-rule:nonzero;fill:rgb(0%,0%,0%);fill-opacity:1;" />
<path d="M 500 187.75 L 593.75 187.75 L 593.75 219 L 500 219 Z M 500 187.75 " style=" stroke:none;fill-rule:nonzero;fill:rgb(0%,0%,0%);fill-opacity:1;" />
<path d="M 625 187.75 L 718.75 187.75 L 718.75 219 L 625 219 Z M 625 187.75 " style=" stroke:none;fill-rule:nonzero;fill:rgb(0%,0%,0%);fill-opacity:1;" />
<path d="M 62.5 62.75 L 156.25 62.75 L 156.25 94 L 62.5 94 Z M 62.5 62.75 " style=" stroke:none;fill-rule:nonzero;fill:rgb(0%,0%,0%);fill-opacity:1;" />
<path d="M 187.5 62.75 L 281.25 62.75 L 281.25 94 L 187.5 94 Z M 187.5 62.75 " style=" stroke:none;fill-rule:nonzero;fill:rgb(0%,0%,0%);fill-opacity:1;" />
<path d="M 312.5 62.75 L 406.25 62.75 L 406.25 94 L 312.5 94 Z M 312.5 62.75 " style=" stroke:none;fill-rule:nonzero;fill:rgb(0%,0%,0%);fill-opacity:1;" />
<path d="M 437.5 62.75 L 531.25 62.75 L 531.25 94 L 437.5 94 Z M 437.5 62.75 " style=" stroke:none;fill-rule:nonzero;fill:rgb(0%,0%,0%);fill-opacity:1;" />
<path d="M 62.5 172.125 L 156.25 172.125 L 156.25 203.375 L 62.5 203.375 Z M 62.5 172.125 " style=" stroke:none;fill-rule:nonzero;fill:rgb(0%,0%,0%);fill-opacity:1;" />
<path d="M 62.5 234.625 L 156.25 234.625 L 156.25 265.875 L 62.5 265.875 Z M 62.5 234.625 " style=" stroke:none;fill-rule:nonzero;fill:rgb(0%,0%,0%);fill-opacity:1;" />
<path d="M 62.5 297.125 L 156.25 297.125 L 156.25 328.375 L 62.5 328.375 Z M 62.5 297.125 " style=" stroke:none;fill-rule:nonzero;fill:rgb(0%,0%,0%);fill-opacity:1;" />
<path d="M 62.5 359.625 L 156.25 359.625 L 156.25 390.875 L 62.5 390.875 Z M 62.5 359.625 " style=" stroke:none;fill-rule:nonzero;fill:rgb(0%,0%,0%);fill-opacity:1;" />
<path d="M 62.5 515.875 L 156.25 515.875 L 156.25 547.125 L 62.5 547.125 Z M 62.5 515.875 " style=" stroke:none;fill-rule:nonzero;fill:rgb(0%,0%,0%);fill-opacity:1;" />
<path d="M 62.5 453.375 L 156.25 453.375 L 156.25 484.625 L 62.5 484.625 Z M 62.5 453.375 " style=" stroke:none;fill-rule:nonzero;fill:rgb(0%,0%,0%);fill-opacity:1;" />
</g>
</svg>