<?xml version="1.0" encoding="iso-8859-1"?>
<!-- Generator: Adobe Illustrator 19.0.0, SVG Export Plug-In . SVG Version: 6.00 Build 0)  -->
<svg version="1.1" id="Capa_1" xmlns="http://www.w3.org/2000/svg" xmlns:xlink="http://www.w3.org/1999/xlink" x="0px" y="0px"
	 viewBox="0 0 512 512" style="enable-background:new 0 0 512 512;" xml:space="preserve">
<g>
	<g>
		<path d="M511.511,379.836c-0.981-3.66-3.329-6.72-6.609-8.613l-20.754-11.982c0.769-5.621,1.157-11.319,1.157-17.003
			c0-5.685-0.389-11.383-1.157-17.003l20.753-11.983c6.774-3.91,9.104-12.602,5.193-19.376l-10.095-17.485
			c-2.071-3.588-6.658-4.815-10.245-2.745c-3.587,2.071-4.816,6.658-2.745,10.245l9.687,16.778l-24.512,14.153
			c-2.741,1.583-4.193,4.716-3.63,7.83c1.162,6.425,1.751,13.015,1.751,19.586c0,6.57-0.589,13.16-1.751,19.586
			c-0.563,3.115,0.889,6.248,3.63,7.83l24.512,14.152l-31.85,55.165l-24.534-14.164c-2.745-1.584-6.189-1.273-8.605,0.778
			c-10.087,8.566-21.488,15.159-33.886,19.596c-2.983,1.067-4.974,3.894-4.974,7.062v28.297h-63.7v-28.297
			c0-3.168-1.991-5.994-4.974-7.062c-12.398-4.437-23.799-11.029-33.886-19.596c-2.416-2.05-5.859-2.363-8.605-0.778l-24.534,14.164
			l-31.85-55.165l24.512-14.152c2.741-1.582,4.193-4.715,3.63-7.83c-1.162-6.426-1.751-13.016-1.751-19.586
			c0-6.571,0.589-13.161,1.751-19.586c0.563-3.114-0.889-6.247-3.63-7.83l-24.511-14.152l31.85-55.166l24.533,14.165
			c2.745,1.584,6.189,1.273,8.605-0.778c10.088-8.567,21.489-15.161,33.886-19.597c2.983-1.067,4.974-3.894,4.974-7.062v-28.296
			h63.7v28.296c0,3.168,1.991,5.994,4.974,7.062c12.397,4.436,23.798,11.029,33.886,19.597c2.416,2.051,5.859,2.363,8.605,0.778
			l24.533-14.165l6.314,10.937c2.071,3.587,6.659,4.815,10.245,2.745c3.587-2.071,4.816-6.658,2.745-10.245l-6.722-11.642
			c-3.912-6.774-12.605-9.104-19.377-5.192l-20.766,11.989c-9.019-7.026-18.885-12.732-29.438-17.024v-23.95
			c0-4.468-2.081-8.454-5.32-11.056V97.793c0-28.881-33.672-53.963-92.382-68.817c-4.018-1.017-8.095,1.415-9.111,5.431
			c-1.016,4.016,1.416,8.095,5.431,9.11c50,12.651,81.062,33.449,81.062,54.276c0,16.151-18.925,32.626-51.922,45.199
			c-35.765,13.629-83.475,21.134-134.341,21.134c-21.696,0-42.991-1.38-63.293-4.101c-4.107-0.549-7.879,2.332-8.43,6.438
			c-0.551,4.106,2.332,7.88,6.438,8.43c20.961,2.809,42.927,4.233,65.286,4.233c52.646,0,102.253-7.854,139.683-22.116
			c20.444-7.79,36.145-17.146,46.582-27.534v59.462h-59.194c-7.822,0-14.185,6.363-14.185,14.185v23.95
			c-10.553,4.292-20.419,9.998-29.438,17.024l-20.766-11.989c-3.282-1.895-7.104-2.397-10.764-1.417
			c-3.66,0.981-6.719,3.328-8.613,6.609l-32.665,56.577c-0.371,0.643-0.673,1.312-0.937,1.991c-3.239,0.062-6.484,0.104-9.702,0.104
			c-50.867,0-98.576-7.506-134.342-21.134C33.925,262.265,15,245.791,15,229.639V129.476c17.072,16.995,48.086,31.083,89.784,40.027
			c0.53,0.114,1.059,0.169,1.58,0.169c3.46-0.001,6.571-2.409,7.326-5.929c0.869-4.051-1.71-8.038-5.76-8.906
			C51.477,142.728,15,120.336,15,97.793c0-16.151,18.925-32.626,51.922-45.199c35.766-13.628,83.475-21.134,134.342-21.134
			c26.116,0,51.421,1.976,75.212,5.871c4.083,0.667,7.944-2.102,8.613-6.189s-2.102-7.944-6.189-8.613
			c-24.591-4.026-50.711-6.068-77.636-6.068c-52.646,0-102.253,7.854-139.683,22.117C21.87,53.709,0,74.739,0,97.793v246.497
			c0,23.054,21.87,44.084,61.581,59.215c37.43,14.263,87.036,22.117,139.683,22.117c10.167,0,20.355-0.312,30.338-0.901
			l12.965,22.457c1.895,3.281,4.954,5.629,8.614,6.609c3.66,0.979,7.483,0.476,10.764-1.418l20.766-11.988
			c9.019,7.025,18.884,12.731,29.438,17.023v23.95c0,7.822,6.363,14.186,14.185,14.186h65.33c7.822,0,14.185-6.363,14.185-14.186
			v-23.95c10.554-4.292,20.42-9.998,29.438-17.023l20.765,11.987c3.281,1.896,7.104,2.4,10.765,1.419
			c3.66-0.98,6.718-3.328,8.613-6.609l32.666-56.577C511.988,387.319,512.491,383.496,511.511,379.836z M201.264,410.622
			c-50.867,0-98.576-7.506-134.342-21.134C33.925,376.915,15,360.44,15,344.289v-82.967c10.437,10.388,26.138,19.744,46.582,27.534
			c37.43,14.263,87.036,22.117,139.683,22.117c4.216,0,8.478-0.062,12.709-0.164c0.912,0.943,1.954,1.771,3.122,2.444l20.754,11.983
			c-0.769,5.62-1.157,11.318-1.157,17.003c0,5.684,0.389,11.382,1.157,17.003l-20.753,11.981c-3.282,1.895-5.63,4.954-6.61,8.614
			c-0.98,3.66-0.477,7.482,1.417,10.764l11.278,19.535C215.924,410.45,208.589,410.622,201.264,410.622z"/>
	</g>
</g>
<g>
	<g>
		<path d="M360.997,296.631c-25.148,0-45.607,20.459-45.607,45.607c0,25.148,20.459,45.607,45.607,45.607
			s45.608-20.459,45.608-45.607C406.605,317.089,386.146,296.631,360.997,296.631z M360.997,372.845
			c-16.877,0-30.607-13.73-30.607-30.607s13.73-30.607,30.607-30.607s30.608,13.73,30.608,30.607S377.875,372.845,360.997,372.845z"
			/>
	</g>
</g>
<g>
</g>
<g>
</g>
<g>
</g>
<g>
</g>
<g>
</g>
<g>
</g>
<g>
</g>
<g>
</g>
<g>
</g>
<g>
</g>
<g>
</g>
<g>
</g>
<g>
</g>
<g>
</g>
<g>
</g>
</svg>
