<?xml version="1.0" encoding="iso-8859-1"?>
<!-- Generator: Adobe Illustrator 19.0.0, SVG Export Plug-In . SVG Version: 6.00 Build 0)  -->
<svg version="1.1" id="Capa_1" xmlns="http://www.w3.org/2000/svg" xmlns:xlink="http://www.w3.org/1999/xlink" x="0px" y="0px"
	 viewBox="0 0 512.001 512.001" style="enable-background:new 0 0 512.001 512.001;" xml:space="preserve">
<g>
	<g>
		<path d="M359.016,65.385c-23.134-26.499-56.557-41.697-91.699-41.697c-28.059,0-55.439,9.779-77.101,27.538
			c-19.357,15.869-33.408,37.434-40.109,61.34c-4.023-0.714-8.11-1.03-12.255-0.961c-8.148,0.146-16.086,1.849-23.592,5.063
			c-3.808,1.631-5.573,6.039-3.942,9.847c1.218,2.844,3.987,4.548,6.898,4.548c0.984,0,1.985-0.195,2.948-0.607
			c5.714-2.447,11.755-3.743,17.956-3.854c5.193-0.103,10.341,0.633,15.256,2.163c2.016,0.627,4.201,0.376,6.021-0.692
			c1.82-1.066,3.106-2.852,3.544-4.915c10.37-48.945,54.266-84.471,104.376-84.471c30.811,0,60.115,13.326,80.4,36.563
			c2.724,3.12,7.462,3.44,10.582,0.718C361.419,73.243,361.74,68.505,359.016,65.385z"/>
	</g>
</g>
<g>
	<g>
		<path d="M497.9,444.715v-96.856c0-1.989-0.79-3.896-2.196-5.304l-92.187-92.186v-40.813h2.072c8.515,0,16.723-3.579,22.517-9.818
			c5.77-6.212,8.72-14.614,8.095-23.051c-0.016-0.214-0.033-0.428-0.05-0.616c-1.853-21.197-20.651-39.632-41.906-41.094
			c-1.897-0.131-3.794-0.144-5.676-0.039c-1.226-14.5-5.005-28.489-11.274-41.692c-1.777-3.742-6.253-5.334-9.992-3.559
			c-3.742,1.777-5.335,6.251-3.559,9.992c6.566,13.828,10.016,28.645,10.252,44.039c0.035,2.304,1.128,4.464,2.963,5.857
			c1.836,1.396,4.212,1.865,6.438,1.282c3.19-0.836,6.49-1.145,9.82-0.916c13.717,0.943,26.797,13.764,27.994,27.461l0.031,0.391
			c0.322,4.355-1.143,8.524-4.127,11.736c-3.01,3.241-7.103,5.026-11.525,5.026H106.642c-7.896,0-14.582-5.856-15.552-13.622
			c-0.268-2.142-0.394-4.329-0.373-6.502c0.09-9.729,3.116-19.116,8.752-27.144c2.38-3.391,1.561-8.068-1.829-10.448
			c-3.393-2.379-8.067-1.56-10.448,1.829c-7.389,10.525-11.356,22.844-11.475,35.624c-0.025,2.839,0.139,5.698,0.488,8.5
			c1.905,15.257,14.99,26.763,30.437,26.763h1.841v40.813l-92.187,92.186c-1.406,1.407-2.196,3.314-2.196,5.304v96.856
			C5.838,448.093,0,456.213,0,465.676c0,12.481,10.155,22.637,22.637,22.637s22.638-10.155,22.638-22.637
			c0-10.237-6.832-18.904-16.175-21.693v-93.017l92.187-92.186c1.406-1.407,2.196-3.314,2.196-5.304v-43.92h32.995v63.346
			l-45.799,45.799c-1.406,1.407-2.196,3.314-2.196,5.304v120.316c-8.807,3.102-15.138,11.501-15.138,21.355
			c0,12.481,10.155,22.637,22.638,22.637c12.481,0,22.637-10.155,22.637-22.637c0-9.854-6.331-18.253-15.137-21.355v-117.21
			l45.799-45.799c1.406-1.407,2.196-3.314,2.196-5.304v-66.452h30.35V444.32c-8.806,3.102-15.137,11.501-15.137,21.355
			c0,12.481,10.155,22.637,22.637,22.637c9.854,0,18.253-6.331,21.355-15.137h50.636c3.102,8.806,11.501,15.137,21.355,15.137
			c12.481,0,22.637-10.155,22.637-22.637c0-9.841-6.314-18.231-15.101-21.343c0.283-19.356,0.277-38.261-0.037-57.661
			c-0.066-4.142-3.481-7.474-7.62-7.378c-4.142,0.067-7.445,3.479-7.378,7.62c0.313,19.311,0.318,38.125,0.034,57.395
			c-6.474,2.269-11.612,7.398-13.89,13.867H263.5V209.557h31.712c0.284,48.128,0.273,96.629-0.039,144.282
			c-0.027,4.142,3.309,7.521,7.451,7.549c0.017,0,0.033,0,0.05,0c4.119,0,7.472-3.326,7.499-7.451
			c0.312-47.686,0.323-96.219,0.04-144.38h30.31v66.452c0,1.989,0.79,3.896,2.196,5.304l45.799,45.799v117.209
			c-8.806,3.102-15.137,11.501-15.137,21.355c0,12.481,10.155,22.637,22.637,22.637s22.638-10.155,22.638-22.637
			c0-9.854-6.331-18.253-15.138-21.355V324.005c0-1.989-0.79-3.896-2.196-5.304l-45.799-45.799v-63.346h32.995v43.92
			c0,1.989,0.79,3.896,2.196,5.304l92.187,92.186v93.017c-9.343,2.789-16.175,11.456-16.175,21.693
			c0,12.481,10.155,22.637,22.638,22.637c12.481,0,22.637-10.155,22.637-22.637C512,456.213,506.162,448.093,497.9,444.715z
			 M30.275,465.676c-0.001,4.211-3.426,7.637-7.638,7.637c-4.211,0-7.637-3.426-7.637-7.637c0-4.212,3.426-7.638,7.637-7.638
			C26.849,458.038,30.275,461.464,30.275,465.676z M123.619,465.676c0,4.211-3.426,7.637-7.637,7.637
			c-4.212,0-7.638-3.426-7.638-7.637c0-4.212,3.426-7.638,7.638-7.638C120.193,458.038,123.619,461.464,123.619,465.676z
			 M302.673,458.038c4.211,0,7.637,3.426,7.637,7.638c0,4.211-3.426,7.637-7.637,7.637c-4.212,0-7.638-3.426-7.638-7.637
			C295.035,461.464,298.461,458.038,302.673,458.038z M209.327,473.313c-4.211,0-7.637-3.426-7.637-7.637
			c0-4.212,3.426-7.638,7.637-7.638c4.212,0,7.638,3.426,7.638,7.638C216.965,469.887,213.539,473.313,209.327,473.313z
			 M248.5,458.176h-17.818c-2.275-6.458-7.398-11.581-13.855-13.855V209.557H248.5V458.176z M396.018,458.038
			c4.212,0,7.638,3.426,7.638,7.638c-0.001,4.211-3.427,7.637-7.638,7.637s-7.637-3.426-7.637-7.637
			C388.381,461.464,391.807,458.038,396.018,458.038z M489.363,473.313c-4.212,0-7.638-3.426-7.638-7.637
			c0-4.212,3.426-7.638,7.638-7.638c4.211,0,7.637,3.426,7.637,7.638C497,469.887,493.574,473.313,489.363,473.313z"/>
	</g>
</g>
<g>
	<g>
		<path d="M251.94,86.071c-4.143,0-7.501,3.358-7.501,7.5v38.409l-13.194-13.193c-2.928-2.928-7.677-2.929-10.606,0.001
			c-2.929,2.929-2.929,7.678,0.001,10.606l25.997,25.996c1.435,1.435,3.353,2.196,5.305,2.196c0.966,0,1.94-0.187,2.868-0.571
			c2.803-1.16,4.63-3.896,4.63-6.929V93.571C259.44,89.428,256.083,86.071,251.94,86.071z"/>
	</g>
</g>
<g>
	<g>
		<path d="M308.005,114.265l-25.997-25.996c-2.144-2.146-5.37-2.79-8.172-1.626c-2.803,1.16-4.63,3.896-4.63,6.929v56.516
			c0,4.143,3.357,7.5,7.5,7.5s7.5-3.357,7.5-7.5v-38.409l13.194,13.193c2.928,2.928,7.677,2.929,10.606-0.001
			C310.935,121.942,310.935,117.193,308.005,114.265z"/>
	</g>
</g>
<g>
</g>
<g>
</g>
<g>
</g>
<g>
</g>
<g>
</g>
<g>
</g>
<g>
</g>
<g>
</g>
<g>
</g>
<g>
</g>
<g>
</g>
<g>
</g>
<g>
</g>
<g>
</g>
<g>
</g>
</svg>
