<svg height="496pt" viewBox="0 0 496 496" width="496pt" xmlns="http://www.w3.org/2000/svg"><path d="m248 336c44.113281 0 80-35.886719 80-80s-35.886719-80-80-80-80 35.886719-80 80 35.886719 80 80 80zm0-144c35.289062 0 64 28.710938 64 64s-28.710938 64-64 64-64-28.710938-64-64 28.710938-64 64-64zm0 0"/><path d="m456 216h-64v-16h-16v16h-23.511719c-14.304687-37.230469-47.871093-64.871094-88.488281-70.71875v-136.234375l-106.425781 70.953125h-58.328125l-35.246094 64.625v-144.625h-16v184h114.335938c-6.113282 7.265625-11.238282 15.34375-15.375 24h-106.960938c-22.054688 0-40 17.945312-40 40v160c0 22.054688 17.945312 40 40 40h56v32h-32v16h224v-16h-32v-32h56c22.054688 0 40-17.945312 40-40v-110.671875c.175781-.441406.320312-.886719.488281-1.328125h23.511719v16h16v-16h64c22.054688 0 40-17.945312 40-40s-17.945312-40-40-40zm-208-72c-11.121094 0-21.847656 1.679688-32 4.71875v-88.4375l32-21.335938zm-69.054688 24h-10.945312v-75.71875l32-21.335938v84.015626c-7.511719 3.582031-14.574219 7.941406-21.054688 13.039062zm-58.945312-72h32v72h-32zm-16 8.710938v63.289062h-34.519531zm144 55.289062c52.9375 0 96 43.0625 96 96s-43.0625 96-96 96-96-43.0625-96-96 43.0625-96 96-96zm-8 320h-128v-32h128zm72-48h-272c-13.230469 0-24-10.769531-24-24v-8h320v8c0 13.230469-10.769531 24-24 24zm24-48h-320v-136c0-13.230469 10.769531-24 24-24h100.71875c-3.039062 10.152344-4.71875 20.878906-4.71875 32 0 61.761719 50.238281 112 112 112 35.695312 0 67.480469-16.847656 88-42.945312zm21.34375-104c1.695312-7.742188 2.65625-15.761719 2.65625-24s-.960938-16.257812-2.65625-24h18.65625v48zm98.65625 0h-64v-48h64c13.230469 0 24 10.769531 24 24s-10.769531 24-24 24zm0 0"/><path d="m32 240h88v16h-88zm0 0"/><path d="m32 272h88v16h-88zm0 0"/><path d="m32 304h88v16h-88zm0 0"/></svg>