<?xml version="1.0" encoding="iso-8859-1"?>
<!-- Generator: Adobe Illustrator 19.0.0, SVG Export Plug-In . SVG Version: 6.00 Build 0)  -->
<svg version="1.1" id="Capa_1" xmlns="http://www.w3.org/2000/svg" xmlns:xlink="http://www.w3.org/1999/xlink" x="0px" y="0px"
	 viewBox="0 0 512 512" style="enable-background:new 0 0 512 512;" xml:space="preserve">
<g>
	<g>
		<path d="M478.624,26.539H33.376C14.973,26.539,0,41.51,0,59.914v392.171c0,18.403,14.973,33.376,33.376,33.376h445.248
			c18.403,0,33.376-14.973,33.376-33.376V59.914C512,41.51,497.027,26.539,478.624,26.539z M492,452.084
			c0,7.375-6,13.376-13.376,13.376H33.376c-7.376,0-13.376-6-13.376-13.376V122.153h472V452.084z M492,102.154H20V59.914
			c0-7.375,6-13.376,13.376-13.376h445.248c7.376,0,13.376,6,13.376,13.376V102.154z"/>
	</g>
</g>
<g>
	<g>
		<path d="M460.888,72.51c-0.118-0.64-0.319-1.27-0.569-1.87c-0.25-0.6-0.55-1.19-0.909-1.73c-0.37-0.55-0.79-1.06-1.25-1.52
			c-0.46-0.46-0.971-0.88-1.521-1.24c-0.54-0.36-1.12-0.67-1.72-0.92c-0.61-0.25-1.24-0.44-1.87-0.57c-1.29-0.26-2.62-0.26-3.91,0
			c-0.64,0.13-1.27,0.32-1.87,0.57c-0.609,0.25-1.189,0.56-1.729,0.92c-0.55,0.36-1.061,0.78-1.521,1.24
			c-0.46,0.46-0.88,0.97-1.239,1.52c-0.36,0.54-0.671,1.13-0.921,1.73c-0.25,0.6-0.439,1.23-0.569,1.87s-0.2,1.3-0.2,1.95
			c0,0.66,0.07,1.31,0.2,1.96c0.13,0.64,0.319,1.26,0.569,1.87c0.25,0.6,0.561,1.18,0.921,1.72c0.359,0.55,0.779,1.06,1.239,1.52
			c0.46,0.46,0.971,0.88,1.521,1.25c0.54,0.36,1.12,0.67,1.729,0.92c0.601,0.25,1.23,0.44,1.87,0.57c0.641,0.13,1.3,0.19,1.95,0.19
			c2.63,0,5.21-1.06,7.07-2.93c0.46-0.46,0.88-0.97,1.25-1.52c0.359-0.54,0.659-1.12,0.909-1.72c0.25-0.61,0.45-1.23,0.57-1.87
			c0.13-0.65,0.2-1.3,0.2-1.96C461.088,73.81,461.018,73.15,460.888,72.51z"/>
	</g>
</g>
<g>
	<g>
		<path d="M413.203,64.463H216.919c-5.522,0-10,4.477-10,10s4.478,10,10,10h196.284c5.522,0,10-4.477,10-10
			S418.726,64.463,413.203,64.463z"/>
	</g>
</g>
<g>
	<g>
		<path d="M107.62,72.51c-0.129-0.64-0.32-1.27-0.57-1.87c-0.25-0.6-0.56-1.19-0.92-1.73c-0.37-0.55-0.78-1.06-1.25-1.52
			c-0.46-0.46-0.97-0.88-1.521-1.24c-0.54-0.36-1.119-0.67-1.72-0.92c-0.609-0.25-1.24-0.44-1.87-0.57c-1.29-0.26-2.62-0.26-3.91,0
			c-0.64,0.13-1.27,0.32-1.869,0.57c-0.61,0.25-1.19,0.56-1.73,0.92c-0.55,0.36-1.06,0.78-1.52,1.24
			c-0.46,0.46-0.881,0.97-1.24,1.52c-0.36,0.54-0.67,1.13-0.92,1.73c-0.25,0.6-0.44,1.23-0.57,1.87s-0.2,1.3-0.2,1.95
			c0,0.65,0.07,1.31,0.2,1.96c0.13,0.63,0.32,1.26,0.57,1.87c0.25,0.6,0.56,1.18,0.92,1.72c0.359,0.55,0.78,1.06,1.24,1.52
			c0.46,0.46,0.97,0.88,1.52,1.25c0.54,0.36,1.12,0.67,1.73,0.92c0.6,0.25,1.229,0.44,1.869,0.57c0.641,0.13,1.301,0.19,1.95,0.19
			c0.66,0,1.311-0.06,1.96-0.19c0.63-0.13,1.261-0.32,1.87-0.57c0.601-0.25,1.18-0.56,1.72-0.92c0.551-0.37,1.061-0.79,1.521-1.25
			c0.46-0.46,0.88-0.97,1.25-1.52c0.36-0.54,0.67-1.12,0.92-1.72c0.25-0.61,0.44-1.23,0.57-1.87c0.13-0.65,0.189-1.3,0.189-1.96
			C107.809,73.81,107.749,73.15,107.62,72.51z"/>
	</g>
</g>
<g>
	<g>
		<path d="M144.521,72.51c-0.122-0.64-0.321-1.27-0.571-1.87c-0.25-0.61-0.561-1.19-0.92-1.73c-0.36-0.55-0.78-1.06-1.24-1.52
			c-0.46-0.46-0.971-0.88-1.521-1.24c-0.54-0.36-1.12-0.67-1.729-0.92c-0.601-0.25-1.23-0.44-1.87-0.57c-1.29-0.26-2.61-0.26-3.91,0
			c-0.63,0.13-1.26,0.32-1.87,0.57c-0.6,0.25-1.18,0.56-1.72,0.92c-0.55,0.36-1.061,0.78-1.521,1.24c-0.46,0.46-0.88,0.97-1.25,1.52
			c-0.359,0.54-0.67,1.12-0.92,1.73c-0.25,0.6-0.439,1.23-0.569,1.87c-0.13,0.64-0.19,1.3-0.19,1.95c0,2.64,1.07,5.21,2.93,7.07
			c0.46,0.46,0.971,0.88,1.521,1.25c0.54,0.36,1.12,0.67,1.72,0.92c0.61,0.25,1.24,0.44,1.87,0.57c0.65,0.13,1.31,0.19,1.96,0.19
			s1.311-0.06,1.95-0.19c0.64-0.13,1.27-0.32,1.87-0.57c0.609-0.25,1.189-0.56,1.729-0.92c0.55-0.37,1.061-0.79,1.521-1.25
			c1.859-1.86,2.93-4.43,2.93-7.07C144.721,73.81,144.651,73.15,144.521,72.51z"/>
	</g>
</g>
<g>
	<g>
		<path d="M67.979,67.39c-2.319-2.32-5.779-3.38-9.029-2.73c-0.631,0.13-1.261,0.32-1.87,0.57c-0.601,0.25-1.181,0.56-1.721,0.92
			c-0.55,0.36-1.06,0.78-1.52,1.24c-0.46,0.46-0.88,0.97-1.25,1.52c-0.36,0.54-0.67,1.12-0.92,1.73c-0.25,0.6-0.44,1.23-0.57,1.87
			s-0.189,1.3-0.189,1.95c0,0.66,0.06,1.31,0.189,1.96c0.13,0.63,0.32,1.26,0.57,1.87c0.25,0.6,0.56,1.18,0.92,1.72
			c0.37,0.55,0.79,1.06,1.25,1.52c0.46,0.47,0.97,0.88,1.52,1.25c0.54,0.36,1.12,0.67,1.721,0.92c0.609,0.25,1.239,0.44,1.87,0.57
			c0.649,0.13,1.31,0.19,1.96,0.19c2.63,0,5.21-1.06,7.069-2.93c1.86-1.86,2.931-4.44,2.931-7.07
			C70.91,71.83,69.84,69.25,67.979,67.39z"/>
	</g>
</g>
<g>
	<g>
		<path d="M458.184,144.383H53.815c-5.522,0-10,4.477-10,10v277.673c0,5.523,4.478,10,10,10h404.369c5.522,0,10-4.477,10-10V154.383
			C468.184,148.861,463.706,144.383,458.184,144.383z M448.184,422.057H63.815V164.383h384.369V422.057z"/>
	</g>
</g>
<g>
	<g>
		<path d="M237.693,182.104H91.159c-5.522,0-10,4.477-10,10v203.671c0,5.523,4.478,10,10,10h146.534c5.522,0,10-4.477,10-10V192.104
			C247.693,186.583,243.216,182.104,237.693,182.104z M227.693,385.776H101.159V202.104h126.534V385.776z"/>
	</g>
</g>
<g>
	<g>
		<path d="M175.763,293.94l36.384-68.105c2.603-4.871,0.763-10.93-4.108-13.532c-4.87-2.603-10.931-0.763-13.532,4.108
			l-30.081,56.306l-30.081-56.306c-2.602-4.871-8.662-6.71-13.532-4.108c-4.871,2.603-6.711,8.661-4.108,13.532l36.384,68.105
			l-36.384,68.105c-2.602,4.871-0.763,10.93,4.108,13.532c1.5,0.802,3.113,1.182,4.703,1.182c3.572,0,7.028-1.919,8.829-5.29
			l30.081-56.306l30.081,56.306c1.801,3.371,5.257,5.29,8.829,5.29c1.59,0,3.203-0.38,4.703-1.182
			c4.871-2.603,6.711-8.661,4.108-13.532L175.763,293.94z"/>
	</g>
</g>
<g>
	<g>
		<path d="M424.127,182.104H277.593c-0.088,0-0.173,0.011-0.26,0.013c-0.189,0.005-0.378,0.013-0.566,0.029
			c-0.16,0.013-0.318,0.032-0.476,0.053c-0.156,0.021-0.311,0.043-0.465,0.071c-0.18,0.032-0.358,0.07-0.534,0.111
			c-0.132,0.031-0.262,0.064-0.392,0.101c-0.186,0.052-0.369,0.109-0.55,0.171c-0.124,0.042-0.246,0.088-0.369,0.135
			c-0.174,0.068-0.347,0.139-0.516,0.216c-0.131,0.059-0.26,0.122-0.389,0.187c-0.151,0.076-0.299,0.155-0.445,0.239
			c-0.143,0.082-0.284,0.168-0.423,0.257c-0.124,0.08-0.247,0.161-0.367,0.246c-0.15,0.105-0.296,0.215-0.44,0.329
			c-0.105,0.083-0.209,0.168-0.31,0.255c-0.143,0.123-0.283,0.25-0.42,0.382c-0.099,0.095-0.196,0.193-0.291,0.292
			c-0.124,0.13-0.245,0.262-0.363,0.399c-0.103,0.12-0.202,0.244-0.3,0.369c-0.097,0.125-0.193,0.25-0.285,0.381
			c-0.109,0.154-0.212,0.313-0.312,0.474c-0.046,0.074-0.099,0.142-0.144,0.218c-0.025,0.043-0.044,0.088-0.069,0.131
			c-0.1,0.176-0.192,0.356-0.281,0.538c-0.058,0.119-0.119,0.237-0.172,0.357c-0.076,0.172-0.143,0.348-0.21,0.524
			c-0.052,0.138-0.106,0.276-0.152,0.416c-0.051,0.155-0.092,0.313-0.135,0.47c-0.046,0.167-0.092,0.334-0.129,0.502
			c-0.029,0.134-0.051,0.271-0.075,0.407c-0.034,0.195-0.067,0.391-0.09,0.587c-0.014,0.121-0.021,0.244-0.031,0.367
			c-0.016,0.212-0.029,0.423-0.032,0.634c-0.001,0.047-0.007,0.092-0.007,0.139v86.251c0,5.523,4.478,10,10,10h146.502
			c0.008,0,0.015,0.001,0.022,0.001c0.024,0,0.048-0.004,0.072-0.005c0.375-0.002,0.744-0.029,1.108-0.071
			c0.104-0.012,0.207-0.032,0.311-0.047c0.299-0.044,0.593-0.101,0.882-0.171c0.1-0.024,0.199-0.049,0.298-0.077
			c0.319-0.088,0.631-0.191,0.936-0.309c0.06-0.023,0.122-0.042,0.182-0.067c0.365-0.149,0.719-0.317,1.06-0.507
			c0.074-0.041,0.144-0.089,0.217-0.132c0.257-0.151,0.507-0.312,0.748-0.484c0.113-0.08,0.223-0.163,0.333-0.249
			c0.216-0.169,0.424-0.347,0.625-0.532c0.087-0.08,0.177-0.155,0.262-0.238c0.27-0.267,0.524-0.55,0.763-0.847
			c0.064-0.08,0.123-0.165,0.184-0.247c0.195-0.257,0.376-0.524,0.546-0.799c0.032-0.052,0.071-0.096,0.101-0.148
			c0.025-0.043,0.044-0.088,0.069-0.131c0.1-0.176,0.192-0.356,0.281-0.538c0.058-0.119,0.119-0.237,0.172-0.357
			c0.076-0.172,0.143-0.348,0.21-0.524c0.052-0.138,0.106-0.276,0.152-0.416c0.051-0.155,0.092-0.313,0.135-0.47
			c0.046-0.167,0.092-0.334,0.129-0.502c0.029-0.134,0.051-0.271,0.075-0.407c0.034-0.195,0.067-0.391,0.09-0.587
			c0.014-0.121,0.021-0.244,0.031-0.367c0.016-0.212,0.029-0.423,0.032-0.634c0.001-0.047,0.007-0.092,0.007-0.139v-86.251
			C434.127,186.583,429.649,182.104,424.127,182.104z M287.593,268.356v-58.761l99.831,58.761H287.593z M414.127,260.867
			l-99.831-58.761h99.831V260.867z"/>
	</g>
</g>
<g>
	<g>
		<path d="M424.127,299.526H277.593c-0.085,0-0.167,0.011-0.251,0.013c-0.195,0.005-0.388,0.013-0.582,0.029
			c-0.155,0.013-0.308,0.031-0.461,0.051c-0.161,0.021-0.321,0.044-0.481,0.073c-0.175,0.031-0.348,0.068-0.52,0.108
			c-0.136,0.032-0.272,0.067-0.407,0.105c-0.181,0.051-0.36,0.106-0.536,0.167c-0.129,0.044-0.255,0.091-0.382,0.14
			c-0.17,0.066-0.338,0.136-0.503,0.211c-0.135,0.061-0.268,0.126-0.401,0.193c-0.147,0.075-0.292,0.152-0.435,0.233
			c-0.146,0.084-0.29,0.172-0.433,0.263c-0.121,0.078-0.241,0.157-0.358,0.24c-0.152,0.107-0.301,0.219-0.448,0.335
			c-0.103,0.081-0.204,0.164-0.304,0.249c-0.145,0.124-0.287,0.253-0.426,0.387c-0.098,0.094-0.193,0.19-0.286,0.287
			c-0.125,0.131-0.248,0.264-0.366,0.403c-0.103,0.119-0.201,0.241-0.298,0.365c-0.098,0.126-0.194,0.252-0.287,0.383
			c-0.109,0.154-0.211,0.312-0.311,0.473c-0.046,0.074-0.099,0.142-0.144,0.218c-0.025,0.043-0.044,0.088-0.069,0.131
			c-0.1,0.176-0.192,0.356-0.281,0.538c-0.058,0.119-0.119,0.237-0.172,0.357c-0.076,0.172-0.143,0.348-0.21,0.524
			c-0.052,0.138-0.106,0.276-0.152,0.416c-0.051,0.155-0.092,0.313-0.135,0.47c-0.046,0.167-0.092,0.334-0.129,0.502
			c-0.029,0.134-0.051,0.271-0.075,0.407c-0.034,0.195-0.067,0.391-0.09,0.587c-0.014,0.121-0.021,0.244-0.031,0.367
			c-0.016,0.212-0.029,0.423-0.032,0.634c-0.001,0.047-0.007,0.092-0.007,0.139v86.251c0,5.523,4.478,10,10,10h146.502
			c0.008,0,0.015,0.001,0.022,0.001c0.024,0,0.048-0.004,0.072-0.005c0.375-0.002,0.744-0.029,1.108-0.071
			c0.104-0.012,0.207-0.032,0.311-0.047c0.299-0.044,0.593-0.101,0.882-0.171c0.1-0.024,0.199-0.049,0.298-0.077
			c0.319-0.088,0.631-0.191,0.936-0.309c0.06-0.023,0.122-0.042,0.182-0.067c0.365-0.149,0.719-0.317,1.06-0.507
			c0.074-0.041,0.144-0.089,0.217-0.132c0.257-0.151,0.507-0.312,0.748-0.484c0.113-0.08,0.223-0.163,0.333-0.249
			c0.216-0.169,0.424-0.347,0.625-0.532c0.087-0.08,0.177-0.155,0.262-0.238c0.27-0.267,0.524-0.55,0.763-0.847
			c0.064-0.08,0.123-0.165,0.184-0.247c0.195-0.257,0.376-0.524,0.546-0.799c0.032-0.052,0.071-0.096,0.101-0.148
			c0.025-0.043,0.044-0.088,0.069-0.131c0.1-0.176,0.192-0.356,0.281-0.538c0.058-0.119,0.119-0.237,0.172-0.357
			c0.076-0.172,0.143-0.348,0.21-0.524c0.052-0.138,0.106-0.276,0.152-0.416c0.051-0.155,0.092-0.313,0.135-0.47
			c0.046-0.167,0.092-0.334,0.129-0.502c0.029-0.134,0.051-0.271,0.075-0.407c0.034-0.195,0.067-0.391,0.09-0.587
			c0.014-0.121,0.021-0.244,0.031-0.367c0.016-0.212,0.029-0.423,0.032-0.634c0.001-0.047,0.007-0.092,0.007-0.139v-86.251
			C434.127,304.003,429.649,299.526,424.127,299.526z M287.593,385.776v-58.761l99.831,58.761H287.593z M414.127,378.286
			l-99.831-58.761h99.831V378.286z"/>
	</g>
</g>
<g>
</g>
<g>
</g>
<g>
</g>
<g>
</g>
<g>
</g>
<g>
</g>
<g>
</g>
<g>
</g>
<g>
</g>
<g>
</g>
<g>
</g>
<g>
</g>
<g>
</g>
<g>
</g>
<g>
</g>
</svg>
